<svg id="Image" height="512" viewBox="0 0 64 64" width="512" xmlns="http://www.w3.org/2000/svg"><g><circle cx="9" cy="15" r="1"/><circle cx="13" cy="15" r="1"/><circle cx="17" cy="15" r="1"/><path d="m55 11h-46c-2.757 0-5 2.243-5 5v32c0 2.757 2.243 5 5 5h46c2.757 0 5-2.243 5-5v-32c0-2.757-2.243-5-5-5zm-46 2h46c1.654 0 3 1.346 3 3v1h-52v-1c0-1.654 1.346-3 3-3zm46 38h-46c-1.654 0-3-1.346-3-3v-29h52v29c0 1.654-1.346 3-3 3z"/><path d="m14.36 29.231-6 5c-.479.4-.48 1.136 0 1.537l6 5c1.007.836 2.307-.682 1.28-1.537l-5.078-4.231 5.078-4.231c1.014-.845-.26-2.385-1.28-1.538z"/><path d="m49.641 29.231c-1.024-.846-2.294.692-1.281 1.537l5.078 4.232-5.078 4.231c-1.026.856.272 2.373 1.281 1.537l6-5c.479-.401.479-1.136 0-1.537z"/><path d="m33.984 30h-2.602l.609-4.876c.164-1.318-1.823-1.554-1.984-.248l-1.75 14c-.163 1.31 1.819 1.578 1.984.248l.892-7.124h2.852c.601 0 1.066.527.992 1.124l-.719 5.752c-.164 1.312 1.817 1.578 1.984.248l.719-5.752c.225-1.787-1.171-3.372-2.977-3.372z"/><path d="m43.73 30h-1.96c-1.505 0-2.787 1.127-2.981 2.626l-.78 6.25v.001l-.75 5.999c-.164 1.312 1.817 1.578 1.984.248l.64-5.124h3.348c1.505 0 2.787-1.127 2.981-2.626l.5-4.002c.221-1.781-1.182-3.372-2.982-3.372zm.499 7.121c-.066.501-.495.879-.999.879h-3.098l.639-5.121c.066-.501.495-.879.999-.879h1.961c.606 0 1.068.54.997 1.126z"/><path d="m23.73 30h-1.96c-1.505 0-2.787 1.127-2.982 2.626l-.78 6.25v.002l-.75 5.998c-.163 1.31 1.819 1.578 1.984.248l.641-5.124h3.347c1.505 0 2.787-1.127 2.982-2.626l.5-4.003c.22-1.788-1.188-3.371-2.982-3.371zm.499 7.121c-.066.501-.495.879-.999.879h-3.098l.639-5.121c.066-.501.495-.879.999-.879h1.96c.615 0 1.068.55.998 1.126z"/></g></svg>