<svg id="Image" height="512" viewBox="0 0 64 64" width="512" xmlns="http://www.w3.org/2000/svg"><g><path d="m57 8h-50c-1.654 0-3 1.346-3 3v34c0 1.654 1.346 3 3 3h18.719l-1.5 6h-4.219c-1.322 0-1.324 2 0 2h24c1.322 0 1.324-2 0-2h-4.219l-1.5-6h18.719c1.654 0 3-1.346 3-3v-34c0-1.654-1.346-3-3-3zm-50 2h50c.551 0 1 .449 1 1v30h-52v-30c0-.551.449-1 1-1zm30.719 44h-11.438l1.5-6h8.438zm19.281-8h-50c-.551 0-1-.449-1-1v-2h52v2c0 .551-.449 1-1 1z"/><path d="m19 33v-6h2c.551 0 1 .449 1 1v5c0 1.322 2 1.324 2 0v-5c0-1.654-1.346-3-3-3h-2v-6c0-1.322-2-1.324-2 0v14c0 1.322 2 1.324 2 0z"/><path d="m48 33v-14c0-1.322-2-1.324-2 0v14c0 1.322 2 1.324 2 0z"/><path d="m26 24h1v9c0 1.322 2 1.324 2 0v-9h1c1.322 0 1.324-2 0-2h-1v-3c0-1.322-2-1.324-2 0v3h-1c-1.322 0-1.324 2 0 2z"/><path d="m34 33v-4.5c0-.827.673-1.5 1.5-1.5s1.5.673 1.5 1.5v4.5c0 1.322 2 1.324 2 0v-4.5c0-.827.673-1.5 1.5-1.5s1.5.673 1.5 1.5v4.5c0 1.322 2 1.324 2 0v-4.5c0-1.93-1.57-3.5-3.5-3.5-.98 0-1.864.407-2.5 1.058-.636-.651-1.52-1.058-2.5-1.058-.614 0-1.183.173-1.686.452-.57-.845-1.814-.414-1.814.548v2.5 4.5c0 1.322 2 1.324 2 0z"/><path d="m51.707 33.707 4-4c.391-.391.391-1.023 0-1.414l-4-4c-.936-.936-2.349.479-1.414 1.414l3.293 3.293-3.293 3.293c-.948.948.492 2.336 1.414 1.414z"/><path d="m13.292 33.707c.922.922 2.362-.467 1.414-1.414l-3.293-3.293 3.293-3.293c.936-.936-.479-2.349-1.414-1.414l-4 4c-.391.391-.391 1.023 0 1.414z"/></g></svg>